0
SECTION
2
HEADER
9
$INSUNITS
70
4
9
$ACADVER
1
AC1014
9
$HANDSEED
5
FFFF
0
ENDSEC
0
SECTION
2
TABLES
0
TABLE
2
VPORT
5
8
100
AcDbSymbolTable
0
ENDTAB
0
TABLE
2
LTYPE
5
5
100
AcDbSymbolTable
0
LTYPE
5
14
100
AcDbSymbolTableRecord
100
AcDbLinetypeTableRecord
2
BYBLOCK
70
0
0
LTYPE
5
15
100
AcDbSymbolTableRecord
100
AcDbLinetypeTableRecord
2
BYLAYER
70
0
0
ENDTAB
0
TABLE
2
LAYER
5
2
100
AcDbSymbolTable
70
2
0
LAYER
5
50
100
AcDbSymbolTableRecord
100
AcDbLayerTableRecord
2
0
70
0
6
CONTINUOUS
0
ENDTAB
0
TABLE
2
STYLE
5
3
100
AcDbSymbolTable
70
1
0
STYLE
5
11
100
AcDbSymbolTableRecord
100
AcDbTextStyleTableRecord
2
STANDARD
70
0
0
ENDTAB
0
TABLE
2
VIEW
5
6
100
AcDbSymbolTable
70
0
0
ENDTAB
0
TABLE
2
UCS
5
7
100
AcDbSymbolTable
70
0
0
ENDTAB
0
TABLE
2
APPID
5
9
100
AcDbSymbolTable
70
2
0
APPID
5
12
100
AcDbSymbolTableRecord
100
AcDbRegAppTableRecord
2
ACAD
70
0
0
ENDTAB
0
TABLE
2
DIMSTYLE
5
A
100
AcDbSymbolTable
70
1
0
ENDTAB
0
TABLE
2
BLOCK_RECORD
5
1
100
AcDbSymbolTable
70
1
0
BLOCK_RECORD
5
1F
100
AcDbSymbolTableRecord
100
AcDbBlockTableRecord
2
*MODEL_SPACE
0
BLOCK_RECORD
5
1B
100
AcDbSymbolTableRecord
100
AcDbBlockTableRecord
2
*PAPER_SPACE
0
ENDTAB
0
ENDSEC
0
SECTION
2
BLOCKS
0
BLOCK
5
20
100
AcDbEntity
100
AcDbBlockBegin
2
*MODEL_SPACE
0
ENDBLK
5
21
100
AcDbEntity
100
AcDbBlockEnd
0
BLOCK
5
1C
100
AcDbEntity
100
AcDbBlockBegin
2
*PAPER_SPACE
0
ENDBLK
5
1D
100
AcDbEntity
100
AcDbBlockEnd
0
ENDSEC
0
SECTION
2
ENTITIES
0
LWPOLYLINE
5
100
100
AcDbEntity
8
0
100
AcDbPolyline
90
4
70
1
43
0.0
10
0
20
19
10
0
20
0
10
12.6
20
0
10
12.6
20
19
0
LWPOLYLINE
5
101
100
AcDbEntity
8
0
100
AcDbPolyline
90
6
70
1
43
0.0
10
4.0773249004154177
20
2.3999999999999995
42
-0.37388467948480419
10
3.0870568316738485
20
3.2608268990399338
10
2.2894142265092516
20
8.9363489411117349
10
2.7821982265092893
20
8.9363489411117349
10
3.7475465128335079
20
8.2613489411117342
10
4.5713053854993273
20
2.3999999999999999
0
LWPOLYLINE
5
102
100
AcDbEntity
8
0
100
AcDbPolyline
90
4
70
1
43
0.0
10
9.9233915198480034
20
2.3999999999999999
10
9.7336613929997746
20
3.75
10
4.4825580159029599
20
3.75
10
4.6722881427511886
20
2.3999999999999999
0
LWPOLYLINE
5
103
100
AcDbEntity
8
0
100
AcDbPolyline
90
6
70
1
43
0.0
10
11.227541161520563
20
3.5391731009600664
42
-0.45572625553258483
10
10.237273092778992
20
2.4000000000000004
10
10.024374277099867
20
2.3999999999999999
10
9.2006154044340409
20
8.2613489411117342
10
9.976233392050057
20
8.9363489411117349
10
10.469017563910061
20
8.9363489411117349
0
LWPOLYLINE
5
104
100
AcDbEntity
8
0
100
AcDbPolyline
90
6
70
1
43
0.0
10
3.9220548640376283
20
8.2613489411117342
10
9.048288540322476
20
8.2613489411117342
10
9.814024460633096
20
8.9277488370171341
10
8.8363769472474925
20
9.6113489411117357
10
3.7101432693029186
20
9.6113489411117357
10
2.9444071781103762
20
8.9449490441519117
0
LWPOLYLINE
5
105
100
AcDbEntity
8
0
100
AcDbPolyline
90
6
70
1
43
0.0
10
1.3724586483046617
20
15.460826899039933
42
-0.45572625553258567
10
2.3627267170462325
20
16.600000000000001
10
2.5756255327253634
20
16.600000000000001
10
3.5578163859852783
20
9.6113489411117357
10
2.8971046205057327
20
9.0363489411117346
10
2.2753601430390118
20
9.0363489411117346
0
LWPOLYLINE
5
106
100
AcDbEntity
8
0
100
AcDbPolyline
90
6
70
1
43
0.0
10
8.5226749094098064
20
16.600000000000001
42
-0.37388467948480386
10
9.5129429781513757
20
15.73917310096007
10
10.454963480439821
20
9.0363489411117346
10
9.8332188565738718
20
9.0363489411117346
10
9.0108852775858121
20
9.6113489411117357
10
8.0286944243259004
20
16.600000000000001
0
LWPOLYLINE
5
107
100
AcDbEntity
8
0
100
AcDbPolyline
90
4
70
1
43
0.0
10
8.1174417939222661
20
15.250000000000002
10
7.9277116670740391
20
16.600000000000001
10
2.6766082899772248
20
16.600000000000001
10
2.8663384168254535
20
15.250000000000002
0
CIRCLE
5
108
100
AcDbEntity
8
0
100
AcDbCircle
10
11.043413355325074
20
15.925000000000001
30
0
40
0.67500000000000049
210
0
220
-0
230
1
0
ENDSEC
0
SECTION
2
OBJECTS
0
DICTIONARY
5
C
100
AcDbDictionary
3
ACAD_GROUP
350
D
3
ACAD_MLINESTYLE
350
17
0
DICTIONARY
5
D
100
AcDbDictionary
0
DICTIONARY
5
1A
330
C
100
AcDbDictionary
0
DICTIONARY
5
17
100
AcDbDictionary
0
ENDSEC
0
EOF
